# AST/ASF file generated using VICON BodyLanguage
# -----------------------------------------------
:version 1.10
:name VICON
:units
  mass 1.0
  length 0.45
  angle deg
:documentation
   .ast/.asf automatically generated from VICON data using
   VICON BodyBuilder and BodyLanguage model FoxedUp or BRILLIANT.MOD
:root
   order TX TY TZ RX RY RZ
   axis XYZ
   position 0 0 0  
   orientation 0 -0 0 
:bonedata
  begin
     id 1 
     name lhipjoint
     direction 0.515797 -0.759363 0.396637 
     length 2.47888 
     axis 0 -0 0  XYZ
  end
  begin
     id 2 
     name lfemur
     direction 0.34202 -0.939693 0  
     length 6.81885  
     axis 0 -0 20  XYZ
    dof rx ry rz
    limits (-160.0 20.0)
           (-70.0 70.0)
           (-60.0 70.0)
  end
  begin
     id 3 
     name ltibia
     direction 0.342037 -0.939687 0   
     length 7.89258   
     axis 0 -0 20   XYZ
    dof rx
    limits (-10.0 170.0)
  end
  begin
     id 4 
     name lfoot
     direction 0.173497 -0.476678 0.861787   
     length 2.51543   
     axis -90 -1.13533e-015 20   XYZ
    dof rx rz
    limits (-45.0 90.0)
           (-70.0 20.0)
  end
  begin
     id 5 
     name ltoes
     direction 1.53564e-011 -4.21897e-011 1   
     length 1.21388   
     axis -90 -1.13533e-015 20   XYZ
    dof rx
    limits (-90.0 20.0)
  end
  begin
     id 6 
     name rhipjoint
     direction -0.489454 -0.772941 0.403729   
     length 2.43534  
     axis 0 -0 0  XYZ 
  end
  begin
     id 7 
     name rfemur
     direction -0.34202 -0.939693 0   
     length 7.10357   
     axis 0 -0 -20   XYZ
    dof rx ry rz
    limits (-160.0 20.0)
           (-70.0 70.0)
           (-70.0 60.0)
  end
  begin
     id 8 
     name rtibia
     direction -0.34202 -0.939693 0   
     length 9.16127   
     axis 0 -0 -20   XYZ
    dof rx
    limits (-10.0 170.0)
 end
 begin
     id 9 
     name rfoot
     direction -0.270974 -0.748671 0.605033   
     length 1.74894  
     axis -90 1.13533e-015 -20   XYZ
    dof rx rz
    limits (-45.0 90.0)
           (-20.0 70.0)
  end
  begin
     id 10 
     name rtoes
     direction -1.53557e-011 -4.21759e-011 1   
     length 0.787585   
     axis -90 1.13533e-015 -20   XYZ
    dof rx
    limits (-90.0 20.0)
  end
  begin
     id 11 
     name lowerback
     direction -0.0140249 0.999561 0.0260968   
     length 2.16963   
     axis 0 -0 0   XYZ
    dof rx ry rz
    limits (-20.0 45.0)
           (-30.0 30.0)
           (-30.0 30.0)
  end
  begin
     id 12 
     name upperback
     direction 0.00860018 0.999959 -0.002711   
     length 2.1726   
     axis 0 -0 0   XYZ
    dof rx ry rz
    limits (-20.0 45.0)
           (-30.0 30.0)
           (-30.0 30.0)
  end
  begin
     id 13 
     name thorax
     direction 0.015211 0.999782 -0.0143191   
     length 2.17061   
     axis 0 -0 0   XYZ
    dof rx ry rz
    limits (-20.0 45.0)
           (-30.0 30.0)
           (-30.0 30.0)
  end
  begin
     id 14 
     name lowerneck
     direction -0.0140143 0.999447 0.030145   
     length 2.26749   
     axis 0 -0 0   XYZ
    dof rx ry rz
    limits (-20.0 45.0)
           (-30.0 30.0)
           (-30.0 30.0)
  end
  begin
     id 15 
     name upperneck
     direction 0.118062 0.961438 -0.248392   
     length 2.22728   
     axis 0 -0 0   XYZ
    dof rx ry rz
    limits (-20.0 45.0)
           (-30.0 30.0)
           (-30.0 30.0)
  end
  begin
     id 16
     name head
     direction 0.0431885 0.9954 -0.085514  
     length 2.28786  
     axis 0 -0 0   XYZ
    dof rx ry rz
    limits (-20.0 45.0)
           (-30.0 30.0)
           (-30.0 30.0)
  end
  begin
     id 17 
     name lclavicle
     direction 0.912126 0.409548 0.0172323  
     length 4.31571  
     axis 0 -0 0   XYZ
    dof ry rz
    limits (-20.0 10.0)
           (0.0 20.0)
  end
  begin
     id 18 
     name lhumerus
     direction 1 -4.48977e-011 1.93091e-027   
     length 5.13658   
     axis 180 -30 -90   XYZ
    dof rx ry rz
    limits (-60.0 90.0)
           (-90.0 90.0)
           (-90.0 90.0)
  end
  begin
     id 19
     name lradius
     direction 1 -4.48916e-011 6.84018e-027   
     length 3.22473   
     axis 180 -30 -90   XYZ
    dof rx
    limits (-10.0 170.0)
  end
  begin
     id 20
     name lwrist
     direction 1 -4.48987e-011 7.01981e-027   
     length 1.61236   
     axis -4.37994e-015 90 90   XYZ
    dof ry
    limits (-180.0 0.0)
 end
  begin
     id 21 
     name lhand
     direction 1 -4.49037e-011 1.40335e-026   
     length 0.936406   
     axis -8.96029e-015 90 90   XYZ
    dof rx rz
    limits (-90.0 90.0)
           (-45.0 45.0)
  end
  begin
     id 22 
     name lfingers
     direction 1 -4.48886e-011 2.8104e-026   
     length 0.754955   
     axis -1.79203e-014 90 90   XYZ
    dof rx
    limits (0.0 90.0)
  end
  begin
     id 23
     name lthumb
     direction 0.707107 -6.34937e-011 0.707107   
     length 1.08397   
     axis -90 45 -4.48555e-014   XYZ
    dof rx rz
    limits (-45.0 45.0)
           (-45.0 45.0)
  end
  begin
     id 24 
     name rclavicle
     direction -0.947962 0.317997 0.0156638   
     length 4.86918  
     axis 0 -0 0   XYZ 
    dof ry rz
    limits (-10.0 20.0)
           (-20.0 0.0)
  end
  begin
     id 25 
     name rhumerus
     direction -1 -4.48951e-011 2.80534e-018  
     length 5.60911   
     axis 180 30 90   XYZ
    dof rx ry rz
    limits (-90.0 60.0)
           (-90.0 90.0)
           (-90.0 90.0)
  end
  begin
     id 26 
     name rradius
     direction -1 -4.4898e-011 2.11315e-027   
     length 3.38704   
     axis 180 30 90   XYZ
    dof rx
    limits (-10.0 170.0)
  end
  begin
     id 27 
     name rwrist
     direction -1 -4.48933e-011 7.02314e-027   
     length 1.69352   
     axis -4.37994e-015 -90 -90   XYZ
    dof ry
    limits (-180.0 0.0)
  end
  begin
     id 28
     name rhand
     direction -1 -4.48937e-011 1.40458e-026   
     length 0.755878   
     axis -8.96029e-015 -90 -90   XYZ
    dof rx rz
    limits (-90.0 90.0)
           (-45.0 45.0)
  end
  begin
     id 29
     name rfingers
     direction -1 -4.4901e-011 2.80737e-026   
     length 0.609409   
     axis -1.79203e-014 -90 -90   XYZ
    dof rx
    limits (0.0 90.0)
  end
  begin
     id 30
     name rthumb
     direction -0.707107 -6.34968e-011 0.707107   
     length 0.874992   
     axis -90 -45 4.48555e-014   XYZ
    dof rx rz
    limits (-45.0 45.0)
           (-45.0 45.0)
  end
:hierarchy
  begin
    root lhipjoint rhipjoint lowerback
    lhipjoint lfemur
    lfemur ltibia
    ltibia lfoot
    lfoot ltoes
    rhipjoint rfemur
    rfemur rtibia
    rtibia rfoot
    rfoot rtoes
    lowerback upperback
    upperback thorax
    thorax lowerneck lclavicle rclavicle
    lowerneck upperneck
    upperneck head
    lclavicle lhumerus
    lhumerus lradius
    lradius lwrist
    lwrist lhand lthumb
    lhand lfingers
    rclavicle rhumerus
    rhumerus rradius
    rradius rwrist
    rwrist rhand rthumb
    rhand rfingers
  end

#!OML:ASF C:\ViconDB\ViconDB\414\Spring2016\041811\Spring2016.ASF
:FULLY-SPECIFIED
:DEGREES
106
root 11.7374 18.1985 5.55463 -176.323 -6.72312 -177.647
lowerback -5.9571 0.932108 -1.3069
upperback 0.955829 1.31065 0.661571
thorax 4.28561 0.608771 1.54291
lowerneck -13.0079 2.66761 -4.98944
upperneck 24.9944 0.855099 10.8225
head 9.95315 0.66313 4.7128
rclavicle 2.33945e-014 1.78906e-015
rhumerus -41.5064 -18.3349 -83.881
rradius 32.0267
rwrist 49.7559
rhand -34.563 -11.8084
rfingers 7.12502
rthumb -7.72298 -41.6473
lclavicle 2.33945e-014 1.78906e-015
lhumerus -37.3419 -1.72456 90.65
lradius 25.0324
lwrist -36.0685
lhand -24.8753 13.0521
lfingers 7.12502
lthumb 1.63205 43.0256
rfemur 169.105 57.7219 -166.757
rtibia 27.0408
rfoot -61.2341 -41.7091
rtoes -27.543
lfemur -8.96943 -6.38322 -18.373
ltibia 25.7373
lfoot -23.1578 6.07241
ltoes -11.4225
107
root 11.7199 18.1982 5.5441 -176.326 -6.71842 -177.668
lowerback -5.91694 0.918414 -1.33311
upperback 0.96028 1.29492 0.643249
thorax 4.26796 0.600818 1.5364
lowerneck -13.0517 2.63086 -4.93602
upperneck 25.0534 0.796749 10.7618
head 9.98998 0.633672 4.67844
rclavicle -4.8081e-015 1.98785e-016
rhumerus -41.5881 -18.3702 -83.8692
rradius 32.1193
rwrist 49.8822
rhand -34.6514 -11.8002
rfingers 7.12502
rthumb -7.80836 -41.636
lclavicle -4.8081e-015 1.98785e-016
lhumerus -37.4014 -2.14757 90.8987
lradius 25.2484
lwrist -35.0841
lhand -25.0008 13.2768
lfingers 7.12502
lthumb 1.51079 43.2512
rfemur 168.989 57.1685 -166.98
rtibia 26.9851
rfoot -60.4819 -41.8461
rtoes -27.3791
lfemur -8.91756 -6.43535 -18.4525
ltibia 25.7416
lfoot -23.2235 6.07878
ltoes -11.3079
108
root 11.7033 18.1971 5.53259 -176.326 -6.71496 -177.578
lowerback -5.88942 0.93526 -1.24963
upperback 0.946574 1.31022 0.651965
thorax 4.23922 0.610626 1.49917
lowerneck -13.0229 2.58999 -4.95745
upperneck 25.0281 0.72572 10.8202
head 9.98135 0.603201 4.69331
rclavicle -6.64686e-015 -1.78906e-015
rhumerus -41.7478 -18.4687 -83.7943
rradius 32.3272
rwrist 49.8468
rhand -34.606 -11.5909
rfingers 7.12502
rthumb -7.76453 -41.4283
lclavicle -6.64686e-015 -1.78906e-015
lhumerus -37.4849 -2.25954 90.9148
lradius 25.3176
lwrist -35.0616
lhand -25.2219 12.4726
lfingers 7.12502
lthumb 1.29729 42.4484
rfemur 168.908 56.6128 -167.052
rtibia 26.9176
rfoot -59.7064 -41.9892
rtoes -27.1868
lfemur -8.87396 -6.54125 -18.4187
ltibia 25.7432
lfoot -23.2858 6.14334
ltoes -11.2199
109
root 11.6859 18.1963 5.52182 -176.302 -6.67729 -177.552
lowerback -5.69803 0.93694 -1.03592
upperback 0.81156 1.30114 0.494474
thorax 3.99953 0.615976 1.20964
lowerneck -12.9546 2.62278 -4.75151
upperneck 25.1057 0.672443 10.8714
head 10.0034 0.592029 4.66997
rclavicle 5.1448e-014 -5.36719e-015
rhumerus -42.0151 -18.0367 -84.2055
rradius 32.6102
rwrist 49.1981
rhand -34.5275 -11.6328
rfingers 7.12502
rthumb -7.68869 -41.473
lclavicle 5.1448e-014 -5.36719e-015
lhumerus -37.7476 -2.29437 90.6331
lradius 25.4306
lwrist -35.2005
lhand -25.0761 13.1476
lfingers 7.12502
lthumb 1.4381 43.1225
rfemur 168.865 55.8374 -167.179
rtibia 26.8446
rfoot -58.7151 -42.102
rtoes -27.0559
lfemur -8.85729 -6.54885 -18.4597
ltibia 25.752
lfoot -23.3276 6.18129
ltoes -11.1912
110
root 11.6656 18.1947 5.51218 -176.297 -6.65546 -177.599
lowerback -5.83257 0.943099 -1.24156
upperback 0.96331 1.32007 0.643824
thorax 4.22451 0.615957 1.48614
lowerneck -13.0935 2.51656 -5.02576
upperneck 25.0278 0.641966 10.8261
head 10.0024 0.561704 4.69993
rclavicle -1.70209e-014 -1.39149e-015
rhumerus -41.8501 -17.3873 -84.2235
rradius 32.9278
rwrist 48.6805
rhand -34.53 -11.7704
rfingers 7.12502
rthumb -7.69111 -41.6105
lclavicle -1.70209e-014 -1.39149e-015
lhumerus -37.531 -2.38076 90.9532
lradius 25.502
lwrist -34.8803
lhand -25.0083 13.166
lfingers 7.12502
lthumb 1.5036 43.1404
rfemur 168.764 55.1332 -167.441
rtibia 26.779
rfoot -57.7603 -42.236
rtoes -26.6932
lfemur -8.80273 -6.62159 -18.5991
ltibia 25.7477
lfoot -23.3913 6.25361
ltoes -11.0644
111
root 11.6443 18.1925 5.50161 -176.278 -6.64061 -177.653
lowerback -5.77645 0.939485 -1.28219
upperback 0.936518 1.31811 0.631248
thorax 4.16447 0.614959 1.49417
lowerneck -13.1271 2.51134 -4.96854
upperneck 25.0538 0.639153 10.7547
head 10.02 0.559115 4.66579
rclavicle -2.23012e-014 -4.77083e-015
rhumerus -42.0252 -16.8144 -84.4274
rradius 33.3249
rwrist 48.1532
rhand -34.4515 -11.8852
rfingers 7.12502
rthumb -7.61533 -41.7281
lclavicle -2.23012e-014 -4.77083e-015
lhumerus -37.7223 -2.60962 91.0892
lradius 25.7401
lwrist -34.5126
lhand -24.987 13.2151
lfingers 7.12502
lthumb 1.52411 43.1894
rfemur 168.685 54.444 -167.696
rtibia 26.7013
rfoot -56.8039 -42.3411
rtoes -26.4557
lfemur -8.77518 -6.49433 -18.7303
ltibia 25.7516
lfoot -23.3877 6.14515
ltoes -11.0491
112
root 11.6224 18.1897 5.49121 -176.31 -6.61848 -177.635
lowerback -5.67506 0.902681 -1.38897
upperback 0.947084 1.26943 0.765285
thorax 4.11467 0.586841 1.68629
lowerneck -13.1318 2.46369 -5.28099
upperneck 25.0291 0.64781 10.8042
head 10.0063 0.542435 4.73882
rclavicle -1.33434e-014 -1.19271e-014
rhumerus -42.1012 -15.6779 -84.6875
rradius 33.8028
rwrist 47.2427
rhand -34.486 -11.9945
rfingers 7.12502
rthumb -7.64872 -41.8362
lclavicle -1.33434e-014 -1.19271e-014
lhumerus -37.9135 -2.88283 91.4531
lradius 26.0486
lwrist -34.1624
lhand -25.181 13.3695
lfingers 7.12502
lthumb 1.3368 43.3451
rfemur 168.537 53.63 -167.929
rtibia 26.6291
rfoot -55.7382 -42.4705
rtoes -26.3062
lfemur -8.7077 -6.34693 -18.7821
ltibia 25.7479
lfoot -23.376 6.03579
ltoes -11.0936
113
root 11.601 18.1899 5.4794 -176.289 -6.6588 -177.496
lowerback -5.67487 0.921726 -1.18768
upperback 0.951229 1.28148 0.736392
thorax 4.12327 0.597775 1.5445
lowerneck -13.1681 2.44903 -5.10567
upperneck 25.0069 0.580534 10.8157
head 10.0146 0.529463 4.70459
rclavicle 2.44629e-014 8.54774e-015
rhumerus -42.2225 -14.7479 -85.1665
rradius 34.4098
rwrist 46.2255
rhand -34.2485 -11.8322
rfingers 7.12502
rthumb -7.41942 -41.6821
lclavicle 2.44629e-014 8.54774e-015
lhumerus -38.2039 -4.101 91.8493
lradius 26.5594
lwrist -33.2255
lhand -25.1581 13.4087
lfingers 7.12502
lthumb 1.3589 43.3841
rfemur 168.499 52.841 -167.936
rtibia 26.5476
rfoot -54.6218 -42.568
rtoes -26.1782
lfemur -8.71692 -6.24917 -18.6806
ltibia 25.7505
lfoot -23.375 5.89822
ltoes -11.0472
114
root 11.5789 18.1878 5.46734 -176.275 -6.59232 -177.582
lowerback -5.63107 0.96338 -1.14003
upperback 0.936446 1.33855 0.623587
thorax 4.08491 0.629375 1.40512
lowerneck -13.1105 2.42134 -5.07552
upperneck 24.9506 0.503533 10.916
head 9.99042 0.504142 4.72277
rclavicle 1.2424e-017 -2.98177e-015
rhumerus -42.4792 -13.7467 -85.707
rradius 35.1596
rwrist 45.3824
rhand -34.0194 -11.8548
rfingers 7.12502
rthumb -7.19829 -41.7124
lclavicle 1.2424e-017 -2.98177e-015
lhumerus -38.5401 -4.97632 92.0713
lradius 27.008
lwrist -32.9948
lhand -25.0905 13.5074
lfingers 7.12502
lthumb 1.42415 43.4824
rfemur 168.417 51.9361 -168.239
rtibia 26.4656
rfoot -53.4215 -42.7138
rtoes -25.7538
lfemur -8.64897 -6.30917 -18.8736
ltibia 25.7513
lfoot -23.4789 5.98728
ltoes -10.9394
115
root 11.5548 18.1856 5.45633 -176.242 -6.55938 -177.671
lowerback -5.60923 0.924608 -1.21492
upperback 0.959379 1.29188 0.631359
thorax 4.09609 0.604197 1.45089
lowerneck -13.1368 2.4159 -5.20969
upperneck 24.8791 0.525147 10.9938
head 9.96546 0.514243 4.77493
rclavicle -2.80908e-014 2.18663e-015
rhumerus -42.6226 -12.6804 -86.1065
rradius 35.9154
rwrist 44.7258
rhand -33.9026 -11.6935
rfingers 7.12502
rthumb -7.0855 -41.5549
lclavicle -2.80908e-014 2.18663e-015
lhumerus -38.9585 -6.11327 92.665
lradius 27.7638
lwrist -31.9664
lhand -25.3533 12.8105
lfingers 7.12502
lthumb 1.17033 42.787
rfemur 168.375 51.0594 -168.521
rtibia 26.3818
rfoot -52.2063 -42.8684
rtoes -25.4084
lfemur -8.61858 -6.41105 -19.0759
ltibia 25.7505
lfoot -23.5584 6.09338
ltoes -10.8467
116
root 11.5318 18.1836 5.44577 -176.254 -6.60615 -177.675
lowerback -5.54781 0.879534 -1.25504
upperback 0.975939 1.23166 0.684206
thorax 4.07864 0.572726 1.52163
lowerneck -13.1545 2.40659 -5.23867
upperneck 24.8834 0.555261 10.8855
head 9.96797 0.516621 4.74519
rclavicle -9.05713e-015 -1.59028e-015
rhumerus -42.8656 -10.8159 -86.7851
rradius 36.9135
rwrist 43.3121
rhand -33.6565 -11.7846
rfingers 7.12502
rthumb -6.84803 -41.6538
lclavicle -9.05713e-015 -1.59028e-015
lhumerus -39.3598 -6.73624 92.8415
lradius 28.4259
lwrist -32.5631
lhand -25.1586 13.1101
lfingers 7.12502
lthumb 1.35842 43.0856
rfemur 168.23 50.0333 -168.768
rtibia 26.3321
rfoot -50.7004 -43.0155
rtoes -25.0426
lfemur -8.55042 -6.47322 -19.1653
ltibia 25.7223
lfoot -23.5821 6.09791
ltoes -10.8708
117
root 11.5059 18.181 5.433 -176.24 -6.59412 -177.697
lowerback -5.52271 0.915696 -1.24852
upperback 0.973527 1.27773 0.713876
thorax 4.05983 0.59551 1.55214
lowerneck -13.1497 2.34024 -5.30126
upperneck 24.8817 0.489567 10.8459
head 9.9725 0.476967 4.73437
rclavicle -6.58474e-016 -3.57812e-015
rhumerus -43.2685 -9.19975 -87.3177
rradius 38.0365
rwrist 42.1024
rhand -33.5127 -11.86
rfingers 7.12502
rthumb -6.70914 -41.7338
lclavicle -6.58474e-016 -3.57812e-015
lhumerus -40.0084 -8.07316 93.3576
lradius 29.3922
lwrist -32.8207
lhand -25.1159 13.1696
lfingers 7.12502
lthumb 1.39966 43.1447
rfemur 168.137 48.9185 -169.015
rtibia 26.2623
rfoot -49.1668 -43.1279
rtoes -24.778
lfemur -8.5031 -6.39432 -19.2766
ltibia 25.7058
lfoot -23.5825 6.01935
ltoes -10.8941
118
root 11.4812 18.1771 5.4212 -176.194 -6.53654 -177.797
lowerback -5.45235 0.917834 -1.22824
upperback 0.947559 1.28283 0.617587
thorax 3.99558 0.600715 1.43986
lowerneck -13.1979 2.34558 -5.23301
upperneck 24.9214 0.47394 10.8451
head 9.99863 0.475552 4.72301
rclavicle -1.60394e-014 9.93923e-016
rhumerus -43.8058 -7.37548 -88.1517
rradius 39.4287
rwrist 40.8055
rhand -33.62 -11.9208
rfingers 7.12502
rthumb -6.81276 -41.7912
lclavicle -1.60394e-014 9.93923e-016
lhumerus -40.825 -9.18646 93.6436
lradius 30.6934
lwrist -32.2996
lhand -25.0794 12.8464
lfingers 7.12502
lthumb 1.43491 42.8213
rfemur 168.109 47.7252 -169.294
rtibia 26.1896
rfoot -47.5342 -43.2556
rtoes -24.3589
lfemur -8.5043 -6.1594 -19.4686
ltibia 25.7166
lfoot -23.5796 5.88286
ltoes -10.9422
119
root 11.4577 18.1756 5.41044 -176.201 -6.52394 -177.767
lowerback -5.38874 0.896798 -1.14543
upperback 0.959588 1.24771 0.633343
thorax 3.97465 0.585085 1.40546
lowerneck -13.2242 2.32968 -5.33393
upperneck 24.9353 0.473055 10.862
head 10.0074 0.46856 4.74798
rclavicle -1.81267e-014 -3.18055e-015
rhumerus -44.3097 -5.47377 -88.8352
rradius 40.818
rwrist 39.1517
rhand -33.2784 -11.3194
rfingers 7.12502
rthumb -6.48299 -41.2002
lclavicle -1.81267e-014 -3.18055e-015
lhumerus -41.7141 -10.4959 94.0833
lradius 32.1776
lwrist -31.8092
lhand -25.1559 12.73
lfingers 7.12502
lthumb 1.36098 42.7054
rfemur 168.017 46.3039 -169.488
rtibia 26.1113
rfoot -45.504 -43.3673
rtoes -23.7624
lfemur -8.45112 -6.19055 -19.5288
ltibia 25.726
lfoot -23.6414 5.89912
ltoes -10.878
120
root 11.4282 18.1696 5.39913 -176.206 -6.49022 -177.781
lowerback -5.29935 0.886402 -1.091
upperback 0.986504 1.22725 0.680107
thorax 3.95284 0.575569 1.41999
lowerneck -13.3255 2.32978 -5.41872
upperneck 24.9496 0.522082 10.8124
head 10.0268 0.484651 4.75416
rclavicle -5.71506e-015 -5.56597e-015
rhumerus -44.9815 -3.11272 -89.5988
rradius 42.4293
rwrist 37.8551
rhand -33.3078 -11.8652
rfingers 7.12502
rthumb -6.51135 -41.7451
lclavicle -5.71506e-015 -5.56597e-015
lhumerus -42.7446 -12.0762 94.6956
lradius 33.9531
lwrist -31.0901
lhand -25.0723 12.6
lfingers 7.12502
lthumb 1.44179 42.5749
rfemur 167.831 45.619 -169.8
rtibia 26.0642
rfoot -44.3004 -43.6889
rtoes -22.4948
lfemur -8.39819 -6.06966 -19.6553
ltibia 25.7285
lfoot -23.6713 5.79357
ltoes -10.8525
